<?xml version="1.0" standalone="no"?>
<!DOCTYPE svg PUBLIC "-//W3C//DTD SVG 20010904//EN"
 "http://www.w3.org/TR/2001/REC-SVG-20010904/DTD/svg10.dtd">
<svg version="1.0" xmlns="http://www.w3.org/2000/svg"
 width="768.000000pt" height="170.000000pt" viewBox="0 0 768.000000 170.000000"
 preserveAspectRatio="xMidYMid meet">

<g transform="translate(0.000000,170.000000) scale(0.100000,-0.100000)"
fill="#000000" stroke="none">
<path d="M70 1643 c-8 -3 -18 -11 -22 -17 -4 -6 -8 -361 -8 -788 l0 -778 25
-16 c21 -14 62 -15 352 -12 351 5 388 10 491 62 102 52 175 159 210 309 26
110 25 768 -1 879 -34 146 -106 252 -204 302 -111 56 -133 58 -493 62 -184 2
-342 1 -350 -3z m715 -147 c120 -33 182 -101 216 -235 19 -74 20 -106 17 -448
-3 -356 -4 -370 -26 -433 -41 -112 -93 -162 -208 -197 -51 -15 -100 -17 -344
-18 l-285 0 -3 665 c-1 366 0 671 3 679 8 21 547 10 630 -13z"/>
<path d="M1540 1630 c-20 -20 -20 -33 -20 -779 0 -464 4 -770 10 -785 5 -15
20 -28 36 -32 22 -6 32 -2 51 20 l23 28 -2 770 c-3 749 -4 770 -22 784 -27 19
-52 18 -76 -6z"/>
<path d="M3103 1640 c-12 -5 -25 -19 -28 -32 -3 -13 -4 -366 -3 -786 3 -743 4
-764 22 -778 16 -11 87 -14 398 -14 365 0 379 1 398 20 11 11 20 32 20 48 0
59 11 57 -367 62 l-348 5 -5 728 c-5 707 -6 729 -24 743 -22 16 -32 16 -63 4z"/>
<path d="M4200 1643 c-40 -14 -40 -8 -40 -805 0 -755 0 -768 20 -788 19 -19
33 -20 443 -20 477 0 467 -1 467 69 0 21 -6 44 -13 50 -10 7 -136 12 -403 13
l-389 3 -3 307 -2 308 253 0 c288 0 297 2 297 69 0 20 -5 42 -12 49 -9 9 -84
12 -275 12 l-263 0 0 305 0 305 393 0 c292 0 396 3 405 12 7 7 12 29 12 49 0
70 8 69 -460 68 -228 0 -422 -3 -430 -6z"/>
<path d="M5420 1643 c-8 -3 -18 -11 -22 -17 -4 -6 -8 -360 -8 -787 0 -739 1
-777 18 -792 25 -22 48 -21 72 3 19 19 20 33 20 320 l0 300 76 91 c42 49 81
88 87 86 6 -2 134 -178 283 -391 150 -213 280 -396 290 -407 35 -39 94 -9 94
47 0 12 -50 93 -111 180 -62 88 -190 270 -285 406 -96 135 -177 253 -180 262
-6 16 22 56 105 152 34 38 119 139 311 364 44 52 80 104 80 115 0 28 -25 61
-51 68 -28 7 -46 -10 -249 -252 -85 -101 -173 -205 -195 -231 -22 -25 -84 -99
-139 -163 -54 -64 -103 -117 -107 -117 -5 0 -9 164 -9 365 0 352 -1 366 -20
385 -20 20 -33 23 -60 13z"/>
<path d="M6875 1641 c-128 -17 -218 -91 -256 -210 -26 -83 -35 -233 -20 -331
22 -138 77 -220 178 -268 57 -26 63 -27 323 -33 239 -5 270 -8 312 -27 85 -38
121 -123 122 -287 0 -131 -22 -206 -75 -257 -57 -54 -101 -60 -389 -56 -240 3
-246 4 -290 28 -61 34 -89 88 -106 202 -7 51 -18 96 -23 101 -14 14 -61 11
-78 -5 -31 -32 -10 -206 36 -296 27 -51 87 -106 146 -134 49 -22 58 -23 345
-23 l295 0 67 33 c100 49 145 113 172 244 42 201 0 426 -96 514 -87 80 -115
86 -423 93 -243 6 -263 8 -302 28 -78 42 -106 110 -106 263 -1 164 40 253 131
281 20 6 123 13 228 16 207 6 309 -5 362 -37 43 -26 73 -90 83 -179 10 -79 30
-111 69 -111 49 0 62 68 36 191 -19 89 -46 138 -101 187 -76 67 -109 74 -360
77 -121 2 -247 0 -280 -4z"/>
<path d="M2017 752 c-22 -24 -22 -65 1 -86 17 -15 52 -16 343 -14 l323 3 16
28 c13 24 13 30 0 55 l-16 27 -325 3 c-306 2 -327 1 -342 -16z"/>
</g>
</svg>
